<svg xmlns:dc="http://purl.org/dc/elements/1.1/" xmlns:cc="http://creativecommons.org/ns#" xmlns:rdf="http://www.w3.org/1999/02/22-rdf-syntax-ns#" xmlns:svg="http://www.w3.org/2000/svg" xmlns="http://www.w3.org/2000/svg" xmlns:xlink="http://www.w3.org/1999/xlink" id="svg543021" viewBox="0 0 1024 768" height="768px" width="1024px" version="1.1">
  <metadata id="metadata543027">
    <rdf:rdf>
      <cc:work rdf:about="">
        <dc:format>image/svg+xml</dc:format>
        <dc:type rdf:resource="http://purl.org/dc/dcmitype/StillImage"></dc:type>
      </cc:work>
    </rdf:rdf>
  </metadata>
  <defs id="defs543025"></defs>
  <linearGradient spreadMethod="pad" y2="30%" x2="-10%" y1="120%" x1="30%" id="3d_gradient2-logo-9916af05-502c-44a4-bcba-fd693c56a067">
    <stop id="stop543002" stop-opacity="1" stop-color="#ffffff" offset="0%"></stop>
    <stop id="stop543004" stop-opacity="1" stop-color="#000000" offset="100%"></stop>
  </linearGradient>
  <linearGradient gradientTransform="rotate(-30)" spreadMethod="pad" y2="30%" x2="-10%" y1="120%" x1="30%" id="3d_gradient3-logo-9916af05-502c-44a4-bcba-fd693c56a067">
    <stop id="stop543007" stop-opacity="1" stop-color="#ffffff" offset="0%"></stop>
    <stop id="stop543009" stop-opacity="1" stop-color="#cccccc" offset="50%"></stop>
    <stop id="stop543011" stop-opacity="1" stop-color="#000000" offset="100%"></stop>
  </linearGradient>
  <g id="logo-group">
    <image xlink:href="" id="container" style="display: none;" x="272" y="144" width="480" height="480" transform="translate(0 0)"></image>
    <g id="logo-center" transform="translate(1.1368683772161603e-13 0)">
      <image xlink:href="" id="icon_container" style="display: none;" x="0" y="0"></image>
      <g id="slogan" style="font-style:normal;font-weight:400;font-size:32px;line-height:1;font-family:Montserrat;font-variant-ligatures:none;text-align:center;text-anchor:middle" transform="translate(0 0)">
        <path id="path543029" style="font-style:normal;font-weight:400;font-size:32px;line-height:1;font-family:Montserrat;font-variant-ligatures:none;text-align:center;text-anchor:middle" d="m 346.54375,-22.4 h 3.648 l 8.192,15.744 8.128,-15.744 h 3.68 V 0 h -2.88 l -0.032,-17.888 -7.968,15.52 h -1.888 l -8.032,-15.52 V 0 h -2.848 z" stroke-width="0" stroke-linejoin="miter" stroke-miterlimit="2" fill="#f12727" stroke="#f12727" transform="translate(5.684341886080802e-14 381.0088) translate(345.1167499999999 51.536) scale(1) translate(-346.54375 22.4)"></path>
        <path id="path543031" style="font-style:normal;font-weight:400;font-size:32px;line-height:1;font-family:Montserrat;font-variant-ligatures:none;text-align:center;text-anchor:middle" d="m 376.31825,-16.928 h 2.976 V 0 h -2.976 z m 1.472,-6.752 q 0.8,0 1.312,0.544 0.544,0.544 0.544,1.376 0,0.832 -0.544,1.376 -0.512,0.544 -1.312,0.544 -0.8,0 -1.344,-0.544 -0.512,-0.544 -0.512,-1.376 0,-0.832 0.512,-1.376 0.544,-0.544 1.344,-0.544 z" stroke-width="0" stroke-linejoin="miter" stroke-miterlimit="2" fill="#f12727" stroke="#f12727" transform="translate(5.684341886080802e-14 381.0088) translate(374.50724999999994 50.256) scale(1) translate(-375.93425 23.68)"></path>
        <path id="path543033" style="font-style:normal;font-weight:400;font-size:32px;line-height:1;font-family:Montserrat;font-variant-ligatures:none;text-align:center;text-anchor:middle" d="m 394.31625,-13.184 q -1.056,-0.64 -2.336,-1.024 -1.248,-0.384 -2.4,-0.384 -1.344,0 -2.176,0.512 -0.8,0.48 -0.8,1.504 0,1.024 0.896,1.568 0.928,0.512 2.784,1.056 1.76,0.512 2.88,1.024 1.12,0.512 1.888,1.504 0.8,0.992 0.8,2.624 0,2.4 -1.824,3.648 -1.792,1.248 -4.48,1.248 -1.888,0 -3.68,-0.608 -1.76,-0.608 -2.976,-1.728 l 1.12,-2.176 q 1.056,0.96 2.592,1.536 1.568,0.576 3.04,0.576 1.472,0 2.368,-0.544 0.896,-0.544 0.896,-1.664 0,-1.152 -0.96,-1.728 -0.928,-0.576 -2.848,-1.152 -1.696,-0.48 -2.784,-0.96 -1.056,-0.512 -1.824,-1.472 -0.736,-0.96 -0.736,-2.496 0,-2.368 1.728,-3.552 1.728,-1.184 4.32,-1.184 1.536,0 3.008,0.448 1.504,0.416 2.592,1.152 z" stroke-width="0" stroke-linejoin="miter" stroke-miterlimit="2" fill="#f12727" stroke="#f12727" transform="translate(5.684341886080802e-14 381.0088) translate(381.4652499999999 56.88) scale(1) translate(-382.89225 17.056)"></path>
        <path id="path543035" style="font-style:normal;font-weight:400;font-size:32px;line-height:1;font-family:Montserrat;font-variant-ligatures:none;text-align:center;text-anchor:middle" d="m 409.06625,-13.184 q -1.056,-0.64 -2.336,-1.024 -1.248,-0.384 -2.4,-0.384 -1.344,0 -2.176,0.512 -0.8,0.48 -0.8,1.504 0,1.024 0.896,1.568 0.928,0.512 2.784,1.056 1.76,0.512 2.88,1.024 1.12,0.512 1.888,1.504 0.8,0.992 0.8,2.624 0,2.4 -1.824,3.648 -1.792,1.248 -4.48,1.248 -1.888,0 -3.68,-0.608 -1.76,-0.608 -2.976,-1.728 l 1.12,-2.176 q 1.056,0.96 2.592,1.536 1.568,0.576 3.04,0.576 1.472,0 2.368,-0.544 0.896,-0.544 0.896,-1.664 0,-1.152 -0.96,-1.728 -0.928,-0.576 -2.848,-1.152 -1.696,-0.48 -2.784,-0.96 -1.056,-0.512 -1.824,-1.472 -0.736,-0.96 -0.736,-2.496 0,-2.368 1.728,-3.552 1.728,-1.184 4.32,-1.184 1.536,0 3.008,0.448 1.504,0.416 2.592,1.152 z" stroke-width="0" stroke-linejoin="miter" stroke-miterlimit="2" fill="#f12727" stroke="#f12727" transform="translate(5.684341886080802e-14 381.0088) translate(396.2152499999999 56.88) scale(1) translate(-397.64225 17.056)"></path>
        <path id="path543037" style="font-style:normal;font-weight:400;font-size:32px;line-height:1;font-family:Montserrat;font-variant-ligatures:none;text-align:center;text-anchor:middle" d="m 414.56825,-16.928 h 2.976 V 0 h -2.976 z m 1.472,-6.752 q 0.8,0 1.312,0.544 0.544,0.544 0.544,1.376 0,0.832 -0.544,1.376 -0.512,0.544 -1.312,0.544 -0.8,0 -1.344,-0.544 -0.512,-0.544 -0.512,-1.376 0,-0.832 0.512,-1.376 0.544,-0.544 1.344,-0.544 z" stroke-width="0" stroke-linejoin="miter" stroke-miterlimit="2" fill="#f12727" stroke="#f12727" transform="translate(5.684341886080802e-14 381.0088) translate(412.75724999999994 50.256) scale(1) translate(-414.18425 23.68)"></path>
        <path id="path543039" style="font-style:normal;font-weight:400;font-size:32px;line-height:1;font-family:Montserrat;font-variant-ligatures:none;text-align:center;text-anchor:middle" d="m 432.72625,-17.024 q 2.976,0 4.672,1.76 1.696,1.728 1.696,4.8 V 0 h -2.976 v -9.664 q 0,-2.144 -1.216,-3.328 -1.184,-1.216 -3.296,-1.216 -2.272,0.032 -3.712,1.472 -1.408,1.408 -1.6,3.68 V 0 h -2.976 v -16.928 h 2.976 v 3.584 q 1.696,-3.616 6.432,-3.68 z" stroke-width="0" stroke-linejoin="miter" stroke-miterlimit="2" fill="#f12727" stroke="#f12727" transform="translate(5.684341886080802e-14 381.0088) translate(421.8912499999999 56.912) scale(1) translate(-423.31825 17.024)"></path>
        <path id="path543041" style="font-style:normal;font-weight:400;font-size:32px;line-height:1;font-family:Montserrat;font-variant-ligatures:none;text-align:center;text-anchor:middle" d="m 459.35675,-16.928 v 15.2 q 0,2.432 -1.088,4.256 -1.056,1.824 -3.008,2.784 -1.952,0.992 -4.544,0.992 -3.744,0 -6.976,-2.368 l 1.312,-2.176 q 1.248,1.024 2.592,1.504 1.344,0.512 2.944,0.512 2.624,0 4.192,-1.472 1.568,-1.472 1.568,-3.936 V -4 q -0.896,1.536 -2.432,2.4 -1.536,0.832 -3.52,0.832 -2.272,0 -4.032,-1.024 -1.728,-1.056 -2.688,-2.912 -0.96,-1.856 -0.96,-4.256 0,-2.368 0.96,-4.192 0.96,-1.824 2.688,-2.848 1.76,-1.024 4.032,-1.024 2.016,0 3.52,0.832 1.536,0.832 2.432,2.368 v -3.104 z m -8.384,13.76 q 1.568,0 2.784,-0.736 1.216,-0.736 1.888,-2.016 0.704,-1.312 0.704,-2.944 0,-1.664 -0.704,-2.944 -0.672,-1.312 -1.888,-2.048 -1.216,-0.736 -2.784,-0.736 -1.568,0 -2.816,0.736 -1.216,0.736 -1.92,2.048 -0.704,1.28 -0.704,2.944 0.032,2.496 1.536,4.096 1.504,1.6 3.904,1.6 z" stroke-width="0" stroke-linejoin="miter" stroke-miterlimit="2" fill="#f12727" stroke="#f12727" transform="translate(5.684341886080802e-14 381.0088) translate(441.2897499999999 56.912) scale(1) translate(-442.71675 17.024)"></path>
        <path id="path543043" style="font-style:normal;font-weight:400;font-size:32px;line-height:1;font-family:Montserrat;font-variant-ligatures:none;text-align:center;text-anchor:middle" d="m 482.60125,-17.024 q 2.368,0 4.224,1.088 1.856,1.088 2.88,3.04 1.024,1.952 1.024,4.48 0,2.496 -1.024,4.448 -0.992,1.92 -2.848,3.008 -1.824,1.056 -4.192,1.056 -2.144,0 -3.776,-0.896 -1.632,-0.896 -2.56,-2.56 v 9.568 h -2.976 v -23.136 h 2.976 v 3.36 q 0.928,-1.664 2.528,-2.56 1.632,-0.896 3.744,-0.896 z m -0.576,14.528 q 1.632,0 2.912,-0.768 1.312,-0.768 2.016,-2.144 0.736,-1.376 0.736,-3.104 0,-1.696 -0.736,-3.072 -0.736,-1.376 -2.016,-2.144 -1.28,-0.768 -2.912,-0.768 -1.632,0 -2.944,0.768 -1.28,0.768 -2.016,2.144 -0.736,1.376 -0.736,3.072 0,1.76 0.736,3.136 0.736,1.344 2.016,2.112 1.312,0.768 2.944,0.768 z" stroke-width="0" stroke-linejoin="miter" stroke-miterlimit="2" fill="#f12727" stroke="#f12727" transform="translate(5.684341886080802e-14 381.0088) translate(471.9262499999999 56.912) scale(1) translate(-473.35325 17.024)"></path>
        <path id="path543045" style="font-style:normal;font-weight:400;font-size:32px;line-height:1;font-family:Montserrat;font-variant-ligatures:none;text-align:center;text-anchor:middle" d="m 501.66475,-17.024 q 3.936,0 5.952,2.336 2.016,2.304 2.016,6.432 0,0.64 -0.032,0.96 h -13.376 q 0.352,2.272 1.888,3.616 1.568,1.344 3.84,1.344 1.504,0 2.784,-0.544 1.312,-0.544 2.272,-1.536 l 1.632,1.696 q -1.248,1.344 -3.008,2.08 -1.76,0.736 -3.904,0.736 -2.496,0 -4.448,-1.056 -1.92,-1.088 -3.008,-3.04 -1.056,-1.952 -1.056,-4.448 0,-2.496 1.056,-4.416 1.088,-1.952 3.008,-3.04 1.92,-1.12 4.384,-1.12 z m 5.28,7.424 q -0.128,-2.304 -1.536,-3.616 -1.408,-1.344 -3.712,-1.344 -2.24,0 -3.744,1.344 -1.472,1.344 -1.76,3.616 z" stroke-width="0" stroke-linejoin="miter" stroke-miterlimit="2" fill="#f12727" stroke="#f12727" transform="translate(5.684341886080802e-14 381.0088) translate(491.7897499999999 56.912) scale(1) translate(-493.21675 17.024)"></path>
        <path id="path543047" style="font-style:normal;font-weight:400;font-size:32px;line-height:1;font-family:Montserrat;font-variant-ligatures:none;text-align:center;text-anchor:middle" d="m 516.66925,-13.28 q 0.832,-1.824 2.368,-2.752 1.536,-0.96 3.648,-0.992 v 2.88 q -2.592,-0.096 -4.192,1.344 -1.6,1.44 -1.824,3.872 V 0 h -2.976 v -16.928 h 2.976 z" stroke-width="0" stroke-linejoin="miter" stroke-miterlimit="2" fill="#f12727" stroke="#f12727" transform="translate(5.684341886080802e-14 381.0088) translate(512.2662499999999 56.912) scale(1) translate(-513.69325 17.024)"></path>
        <path id="path543049" style="font-style:normal;font-weight:400;font-size:32px;line-height:1;font-family:Montserrat;font-variant-ligatures:none;text-align:center;text-anchor:middle" d="m 535.19125,-13.184 q -1.056,-0.64 -2.336,-1.024 -1.248,-0.384 -2.4,-0.384 -1.344,0 -2.176,0.512 -0.8,0.48 -0.8,1.504 0,1.024 0.896,1.568 0.928,0.512 2.784,1.056 1.76,0.512 2.88,1.024 1.12,0.512 1.888,1.504 0.8,0.992 0.8,2.624 0,2.4 -1.824,3.648 -1.792,1.248 -4.48,1.248 -1.888,0 -3.68,-0.608 -1.76,-0.608 -2.976,-1.728 l 1.12,-2.176 q 1.056,0.96 2.592,1.536 1.568,0.576 3.04,0.576 1.472,0 2.368,-0.544 0.896,-0.544 0.896,-1.664 0,-1.152 -0.96,-1.728 -0.928,-0.576 -2.848,-1.152 -1.696,-0.48 -2.784,-0.96 -1.056,-0.512 -1.824,-1.472 -0.736,-0.96 -0.736,-2.496 0,-2.368 1.728,-3.552 1.728,-1.184 4.32,-1.184 1.536,0 3.008,0.448 1.504,0.416 2.592,1.152 z" stroke-width="0" stroke-linejoin="miter" stroke-miterlimit="2" fill="#f12727" stroke="#f12727" transform="translate(5.684341886080802e-14 381.0088) translate(522.3402499999999 56.88) scale(1) translate(-523.76725 17.056)"></path>
        <path id="path543051" style="font-style:normal;font-weight:400;font-size:32px;line-height:1;font-family:Montserrat;font-variant-ligatures:none;text-align:center;text-anchor:middle" d="m 547.73325,-17.024 q 2.528,0 4.48,1.088 1.984,1.088 3.072,3.04 1.12,1.92 1.12,4.416 0,2.496 -1.12,4.448 -1.088,1.952 -3.072,3.04 -1.952,1.088 -4.48,1.088 -2.56,0 -4.544,-1.088 -1.952,-1.088 -3.072,-3.008 -1.088,-1.952 -1.088,-4.48 0,-2.496 1.088,-4.416 1.12,-1.952 3.072,-3.04 1.984,-1.088 4.544,-1.088 z m 0,2.592 q -1.664,0 -2.976,0.768 -1.28,0.768 -2.016,2.144 -0.704,1.344 -0.704,3.072 0,1.76 0.704,3.136 0.736,1.376 2.016,2.144 1.312,0.736 2.976,0.736 1.632,0 2.912,-0.736 1.312,-0.768 2.016,-2.144 0.736,-1.376 0.736,-3.136 0,-1.728 -0.736,-3.072 -0.704,-1.376 -2.016,-2.144 -1.28,-0.768 -2.912,-0.768 z" stroke-width="0" stroke-linejoin="miter" stroke-miterlimit="2" fill="#f12727" stroke="#f12727" transform="translate(5.684341886080802e-14 381.0088) translate(537.6022499999999 56.912) scale(1) translate(-539.02925 17.024)"></path>
        <path id="path543053" style="font-style:normal;font-weight:400;font-size:32px;line-height:1;font-family:Montserrat;font-variant-ligatures:none;text-align:center;text-anchor:middle" d="m 569.97625,-17.024 q 2.976,0 4.672,1.76 1.696,1.728 1.696,4.8 V 0 h -2.976 v -9.664 q 0,-2.144 -1.216,-3.328 -1.184,-1.216 -3.296,-1.216 -2.272,0.032 -3.712,1.472 -1.408,1.408 -1.6,3.68 V 0 h -2.976 v -16.928 h 2.976 v 3.584 q 1.696,-3.616 6.432,-3.68 z" stroke-width="0" stroke-linejoin="miter" stroke-miterlimit="2" fill="#f12727" stroke="#f12727" transform="translate(5.684341886080802e-14 381.0088) translate(559.1412499999999 56.912) scale(1) translate(-560.56825 17.024)"></path>
        <path id="path543055" style="font-style:normal;font-weight:400;font-size:32px;line-height:1;font-family:Montserrat;font-variant-ligatures:none;text-align:center;text-anchor:middle" d="m 596.24575,-21.28 q -1.152,0 -1.92,0.704 -0.768,0.704 -0.768,2.016 v 2.208 h 4.672 v 2.272 h -4.672 V 0 h -2.976 v -14.08 h -2.208 v -2.272 h 2.208 v -1.824 q 0,-1.856 0.768,-3.136 0.8,-1.312 2.08,-1.952 1.28,-0.672 2.752,-0.672 1.408,0 2.944,0.768 l -0.704,2.432 q -1.152,-0.544 -2.176,-0.544 z" stroke-width="0" stroke-linejoin="miter" stroke-miterlimit="2" fill="#f12727" stroke="#f12727" transform="translate(5.684341886080802e-14 381.0088) translate(586.9467499999998 50) scale(1) translate(-588.37375 23.936)"></path>
        <path id="path543057" style="font-style:normal;font-weight:400;font-size:32px;line-height:1;font-family:Montserrat;font-variant-ligatures:none;text-align:center;text-anchor:middle" d="m 600.94325,-16.928 h 2.976 V 0 h -2.976 z m 1.472,-6.752 q 0.8,0 1.312,0.544 0.544,0.544 0.544,1.376 0,0.832 -0.544,1.376 -0.512,0.544 -1.312,0.544 -0.8,0 -1.344,-0.544 -0.512,-0.544 -0.512,-1.376 0,-0.832 0.512,-1.376 0.544,-0.544 1.344,-0.544 z" stroke-width="0" stroke-linejoin="miter" stroke-miterlimit="2" fill="#f12727" stroke="#f12727" transform="translate(5.684341886080802e-14 381.0088) translate(599.1322499999999 50.256) scale(1) translate(-600.55925 23.68)"></path>
        <path id="path543059" style="font-style:normal;font-weight:400;font-size:32px;line-height:1;font-family:Montserrat;font-variant-ligatures:none;text-align:center;text-anchor:middle" d="m 619.10125,-17.024 q 2.976,0 4.672,1.76 1.696,1.728 1.696,4.8 V 0 h -2.976 v -9.664 q 0,-2.144 -1.216,-3.328 -1.184,-1.216 -3.296,-1.216 -2.272,0.032 -3.712,1.472 -1.408,1.408 -1.6,3.68 V 0 h -2.976 v -16.928 h 2.976 v 3.584 q 1.696,-3.616 6.432,-3.68 z" stroke-width="0" stroke-linejoin="miter" stroke-miterlimit="2" fill="#f12727" stroke="#f12727" transform="translate(5.684341886080802e-14 381.0088) translate(608.2662499999999 56.912) scale(1) translate(-609.69325 17.024)"></path>
        <path id="path543061" style="font-style:normal;font-weight:400;font-size:32px;line-height:1;font-family:Montserrat;font-variant-ligatures:none;text-align:center;text-anchor:middle" d="M 646.53175,-23.744 V 0 h -2.976 v -3.36 q -0.96,1.696 -2.592,2.624 -1.6,0.896 -3.744,0.896 -2.4,0 -4.256,-1.088 -1.824,-1.12 -2.848,-3.072 -1.024,-1.984 -1.024,-4.512 0,-2.496 1.024,-4.416 1.024,-1.952 2.848,-3.04 1.856,-1.088 4.224,-1.088 2.176,0 3.808,0.896 1.632,0.896 2.56,2.592 v -10.176 z m -8.704,21.344 q 1.664,0 2.944,-0.768 1.312,-0.768 2.048,-2.144 0.736,-1.376 0.736,-3.104 0,-1.76 -0.736,-3.136 -0.736,-1.376 -2.048,-2.144 -1.28,-0.768 -2.944,-0.768 -1.664,0 -2.976,0.8 -1.28,0.768 -2.016,2.144 -0.736,1.376 -0.736,3.104 0,1.728 0.736,3.104 0.736,1.376 2.016,2.144 1.312,0.768 2.976,0.768 z" stroke-width="0" stroke-linejoin="miter" stroke-miterlimit="2" fill="#f12727" stroke="#f12727" transform="translate(5.684341886080802e-14 381.0088) translate(627.6647499999999 50.192) scale(1) translate(-629.09175 23.744)"></path>
        <path id="path543063" style="font-style:normal;font-weight:400;font-size:32px;line-height:1;font-family:Montserrat;font-variant-ligatures:none;text-align:center;text-anchor:middle" d="m 659.28975,-17.024 q 3.936,0 5.952,2.336 2.016,2.304 2.016,6.432 0,0.64 -0.032,0.96 h -13.376 q 0.352,2.272 1.888,3.616 1.568,1.344 3.84,1.344 1.504,0 2.784,-0.544 1.312,-0.544 2.272,-1.536 l 1.632,1.696 q -1.248,1.344 -3.008,2.08 -1.76,0.736 -3.904,0.736 -2.496,0 -4.448,-1.056 -1.92,-1.088 -3.008,-3.04 -1.056,-1.952 -1.056,-4.448 0,-2.496 1.056,-4.416 1.088,-1.952 3.008,-3.04 1.92,-1.12 4.384,-1.12 z m 5.28,7.424 q -0.128,-2.304 -1.536,-3.616 -1.408,-1.344 -3.712,-1.344 -2.24,0 -3.744,1.344 -1.472,1.344 -1.76,3.616 z" stroke-width="0" stroke-linejoin="miter" stroke-miterlimit="2" fill="#f12727" stroke="#f12727" transform="translate(5.684341886080802e-14 381.0088) translate(649.4147499999999 56.912) scale(1) translate(-650.84175 17.024)"></path>
        <path id="path543065" style="font-style:normal;font-weight:400;font-size:32px;line-height:1;font-family:Montserrat;font-variant-ligatures:none;text-align:center;text-anchor:middle" d="m 674.29425,-13.28 q 0.832,-1.824 2.368,-2.752 1.536,-0.96 3.648,-0.992 v 2.88 q -2.592,-0.096 -4.192,1.344 -1.6,1.44 -1.824,3.872 V 0 h -2.976 v -16.928 h 2.976 z" stroke-width="0" stroke-linejoin="miter" stroke-miterlimit="2" fill="#f12727" stroke="#f12727" transform="translate(5.684341886080802e-14 381.0088) translate(669.8912499999999 56.912) scale(1) translate(-671.31825 17.024)"></path>
      </g>
      <g id="title" style="font-style:normal;font-weight:700;font-size:72px;line-height:1;font-family:'Brandmark1 Bold';font-variant-ligatures:normal;text-align:center;text-anchor:middle" transform="translate(0 0)">
        <path id="path543068" style="font-style:normal;font-weight:700;font-size:72px;line-height:1;font-family:'Brandmark1 Bold';font-variant-ligatures:normal;text-align:center;text-anchor:middle" d="m 485.48937,2.52 h 11.30401 v -56.16 h -10.296 l -17.35201,30.6 -17.42399,-30.6 H 441.42537 V 2.52 h 11.376 v -32.184 l 12.672,21.888 h 7.20001 l 12.81599,-22.032 z" stroke-width="0" stroke-linejoin="miter" stroke-miterlimit="2" fill="#f12727" stroke="#f12727" transform="translate(0 302.8816) translate(359.3942074999999 3.8695999999999913) scale(1.86) translate(-441.42537 53.64)"></path>
        <path id="path543070" style="font-style:normal;font-weight:700;font-size:72px;line-height:1;font-family:'Brandmark1 Bold';font-variant-ligatures:normal;text-align:center;text-anchor:middle" d="m 504.42537,2.52 h 11.304 v -19.512 h 7.992 c 2.88,0 5.616,-0.288 7.99201,-1.008 2.52,-0.72 4.75199,-1.872 6.55199,-3.384 1.94401,-1.584 3.456,-3.528 4.392,-5.832 1.00801,-2.376 1.584,-5.04 1.584,-8.064 0,-5.328 -1.656,-9.864 -4.752,-13.032 -3.384,-3.528 -8.35199,-5.328 -14.688,-5.328 h -20.376 z m 18.72001,-30.24 h -7.41601 v -15.192 h 8.424 c 2.736,0 4.968,0.72 6.408,1.944 1.44001,1.224 2.16,3.096 2.16,5.544 0,2.376 -0.71999,4.248 -2.088,5.544 -1.58399,1.44 -4.104,2.16 -7.48799,2.16 z" stroke-width="0" stroke-linejoin="miter" stroke-miterlimit="2" fill="#f12727" stroke="#f12727" transform="translate(0 302.8816) translate(495.1742074999999 3.8695999999999913) scale(1.86) translate(-504.42537 53.64)"></path>
        <path id="path543072" style="font-style:normal;font-weight:700;font-size:72px;line-height:1;font-family:'Brandmark1 Bold';font-variant-ligatures:normal;text-align:center;text-anchor:middle" d="m 548.58163,2.52 h 11.30399 v -21.744 h 25.632 v -10.728 h -25.632 v -12.96 h 25.632 V -53.64 h -36.93599 z" stroke-width="0" stroke-linejoin="miter" stroke-miterlimit="2" fill="#f12727" stroke="#f12727" transform="translate(0 302.8816) translate(595.9048511 3.8695999999999913) scale(1.86) translate(-548.58163 53.64)"></path>
      </g>
      <image xlink:href="" id="icon" style="display: none;" x="0" y="0"></image>
    </g>
  </g>
</svg>